<svg xmlns="http://www.w3.org/2000/svg" width="116.062" height="63.228" viewBox="0 0 116.062 63.228">
  <path id="Path_24" data-name="Path 24" d="M88.524,89.677h0l69.129,40.28-29.323-.119A39.97,39.97,0,0,1,88.524,89.677Zm60.985,15.158,13.314,17.932-7.4-55.877h0A26.945,26.945,0,0,0,149.509,104.835Zm33.93-29.64a24.134,24.134,0,0,0-19.9,27.853L166.755,122l16.684-46.805ZM200.073,94.2h0a19.609,19.609,0,0,0-24.855,13.438L172.2,118.5l-1.228,4.433Zm4.513,19.314h0a15.106,15.106,0,0,0-21.5,1.672l-8.768,10.442Zm-3.034,16.6a12.684,12.684,0,0,0-17.563-4.89l-8.205,4.812,25.768.078Zm-80.46-58.861h0a32.084,32.084,0,0,0,14.862,42.564l23.41,11.477Z" transform="translate(-88.524 -66.89)" fill="#fff"/>
</svg>
